<svg width="24" height="24" viewBox="0 0 24 24" fill="none" xmlns="http://www.w3.org/2000/svg">
<path d="M10.7327 19.7911C11.0326 20.0768 11.5074 20.0652 11.7931 19.7653C12.0788 19.4654 12.0672 18.9907 11.7673 18.705L5.5159 12.7504L20.25 12.7504C20.6642 12.7504 21 12.4146 21 12.0004C21 11.5862 20.6642 11.2504 20.25 11.2504L5.5158 11.2504L11.7673 5.2957C12.0672 5.01 12.0788 4.5352 11.7931 4.2353C11.5074 3.9354 11.0326 3.9238 10.7327 4.2095L3.3138 11.2762C3.1449 11.4371 3.0449 11.6424 3.0139 11.8557C3.0048 11.9025 3 11.9509 3 12.0004C3 12.0499 3.0048 12.0984 3.014 12.1453C3.045 12.3585 3.145 12.5636 3.3138 12.7244L10.7327 19.7911Z" fill="white"/>
</svg>
